<svg width="324" height="41" viewBox="0 0 324 41" fill="none" xmlns="http://www.w3.org/2000/svg">
<path d="M5.46316 25.42V22.03H9.99316C11.4332 22.03 12.5132 21.74 13.2332 21.16C13.9532 20.56 14.3132 19.58 14.3132 18.22C14.3132 17.02 13.9732 16.11 13.2932 15.49C12.6332 14.85 11.6032 14.53 10.2032 14.53H5.46316V11.2H10.3232C11.6032 11.2 12.7532 11.35 13.7732 11.65C14.8132 11.95 15.6932 12.4 16.4132 13C17.1532 13.58 17.7132 14.32 18.0932 15.22C18.4732 16.1 18.6632 17.14 18.6632 18.34C18.6632 19.88 18.3132 21.18 17.6132 22.24C16.9132 23.28 15.8732 24.07 14.4932 24.61C13.1332 25.15 11.4332 25.42 9.39316 25.42H5.46316ZM2.43316 31V11.2H6.75316V31H2.43316ZM21.5591 31V9.55H25.8191V31H21.5591ZM33.4815 31.42C32.6015 31.42 31.8215 31.25 31.1415 30.91C30.4615 30.55 29.9315 30.04 29.5515 29.38C29.1715 28.72 28.9815 27.9 28.9815 26.92C28.9815 26.06 29.1415 25.34 29.4615 24.76C29.8015 24.18 30.2915 23.71 30.9315 23.35C31.5715 22.99 32.3615 22.69 33.3015 22.45C34.2415 22.21 35.3115 22 36.5115 21.82C37.1515 21.72 37.6715 21.63 38.0715 21.55C38.4915 21.45 38.8015 21.3 39.0015 21.1C39.2015 20.88 39.3015 20.57 39.3015 20.17C39.3015 19.61 39.1015 19.13 38.7015 18.73C38.3015 18.33 37.6715 18.13 36.8115 18.13C36.2315 18.13 35.6915 18.23 35.1915 18.43C34.7115 18.63 34.2915 18.93 33.9315 19.33C33.5915 19.73 33.3415 20.24 33.1815 20.86L29.3715 19.69C29.6115 18.87 29.9515 18.16 30.3915 17.56C30.8515 16.96 31.4015 16.46 32.0415 16.06C32.6815 15.64 33.4115 15.33 34.2315 15.13C35.0515 14.93 35.9415 14.83 36.9015 14.83C38.4415 14.83 39.6915 15.08 40.6515 15.58C41.6315 16.06 42.3615 16.82 42.8415 17.86C43.3215 18.88 43.5615 20.2 43.5615 21.82V24.52C43.5615 25.22 43.5715 25.93 43.5915 26.65C43.6315 27.37 43.6715 28.1 43.7115 28.84C43.7715 29.56 43.8315 30.28 43.8915 31H40.0815C40.0015 30.5 39.9215 29.93 39.8415 29.29C39.7815 28.63 39.7315 27.97 39.6915 27.31H39.1515C38.8715 28.07 38.4715 28.76 37.9515 29.38C37.4315 30 36.7915 30.5 36.0315 30.88C35.2915 31.24 34.4415 31.42 33.4815 31.42ZM35.3115 28.3C35.6915 28.3 36.0715 28.23 36.4515 28.09C36.8515 27.95 37.2315 27.76 37.5915 27.52C37.9715 27.26 38.3115 26.94 38.6115 26.56C38.9315 26.18 39.1915 25.75 39.3915 25.27L39.3315 22.75L40.0215 22.9C39.6615 23.16 39.2415 23.37 38.7615 23.53C38.2815 23.67 37.7815 23.78 37.2615 23.86C36.7615 23.94 36.2615 24.03 35.7615 24.13C35.2615 24.23 34.8115 24.36 34.4115 24.52C34.0315 24.68 33.7215 24.9 33.4815 25.18C33.2615 25.44 33.1515 25.81 33.1515 26.29C33.1515 26.91 33.3515 27.4 33.7515 27.76C34.1515 28.12 34.6715 28.3 35.3115 28.3ZM47.3404 31V21.46V15.25H50.8804L50.8504 19.96H51.4504C51.7104 18.82 52.0804 17.87 52.5604 17.11C53.0404 16.35 53.6404 15.78 54.3604 15.4C55.1004 15.02 55.9704 14.83 56.9704 14.83C58.7904 14.83 60.1704 15.47 61.1104 16.75C62.0704 18.03 62.5504 20.04 62.5504 22.78V31H58.2004V23.26C58.2004 21.58 57.9504 20.36 57.4504 19.6C56.9704 18.82 56.2604 18.43 55.3204 18.43C54.5204 18.43 53.8504 18.68 53.3104 19.18C52.7704 19.68 52.3604 20.34 52.0804 21.16C51.8204 21.96 51.6804 22.86 51.6604 23.86V31H47.3404ZM66.2661 31V21.46V15.25H69.8061L69.7761 19.96H70.3761C70.6361 18.82 71.0061 17.87 71.4861 17.11C71.9661 16.35 72.5661 15.78 73.2861 15.4C74.0261 15.02 74.8961 14.83 75.8961 14.83C77.7161 14.83 79.0961 15.47 80.0361 16.75C80.9961 18.03 81.4761 20.04 81.4761 22.78V31H77.1261V23.26C77.1261 21.58 76.8761 20.36 76.3761 19.6C75.8961 18.82 75.1861 18.43 74.2461 18.43C73.4461 18.43 72.7761 18.68 72.2361 19.18C71.6961 19.68 71.2861 20.34 71.0061 21.16C70.7461 21.96 70.6061 22.86 70.5861 23.86V31H66.2661ZM85.1919 31V15.25H89.5119V31H85.1919ZM87.3819 12.88C86.5419 12.88 85.8919 12.71 85.4319 12.37C84.9919 12.01 84.7719 11.49 84.7719 10.81C84.7719 10.11 84.9919 9.58 85.4319 9.22C85.8919 8.86 86.5419 8.68 87.3819 8.68C88.2419 8.68 88.8919 8.86 89.3319 9.22C89.7919 9.58 90.0219 10.11 90.0219 10.81C90.0219 11.47 89.7919 11.98 89.3319 12.34C88.8919 12.7 88.2419 12.88 87.3819 12.88ZM93.5122 31V21.46V15.25H97.0522L97.0222 19.96H97.6222C97.8822 18.82 98.2522 17.87 98.7322 17.11C99.2122 16.35 99.8122 15.78 100.532 15.4C101.272 15.02 102.142 14.83 103.142 14.83C104.962 14.83 106.342 15.47 107.282 16.75C108.242 18.03 108.722 20.04 108.722 22.78V31H104.372V23.26C104.372 21.58 104.122 20.36 103.622 19.6C103.142 18.82 102.432 18.43 101.492 18.43C100.692 18.43 100.022 18.68 99.4822 19.18C98.9422 19.68 98.5322 20.34 98.2522 21.16C97.9922 21.96 97.8522 22.86 97.8322 23.86V31H93.5122ZM118.678 36.49C116.958 36.49 115.538 36.35 114.418 36.07C113.318 35.81 112.508 35.42 111.988 34.9C111.468 34.38 111.208 33.73 111.208 32.95C111.208 32.03 111.568 31.28 112.288 30.7C113.028 30.12 114.108 29.77 115.528 29.65V29.05C114.448 29.05 113.618 28.94 113.038 28.72C112.458 28.48 112.168 28.07 112.168 27.49C112.168 26.93 112.448 26.43 113.008 25.99C113.588 25.55 114.538 25.2 115.858 24.94V24.34C114.618 24.26 113.648 23.86 112.948 23.14C112.248 22.42 111.898 21.49 111.898 20.35C111.898 19.35 112.178 18.46 112.738 17.68C113.298 16.88 114.128 16.25 115.228 15.79C116.348 15.31 117.718 15.07 119.338 15.07H127.318V18.37L122.368 17.68V18.37C123.648 18.55 124.568 18.87 125.128 19.33C125.708 19.79 125.998 20.43 125.998 21.25C125.998 22.07 125.728 22.79 125.188 23.41C124.648 24.03 123.878 24.52 122.878 24.88C121.898 25.22 120.718 25.39 119.338 25.39C119.078 25.39 118.798 25.38 118.498 25.36C118.198 25.34 117.698 25.29 116.998 25.21C116.618 25.49 116.318 25.74 116.098 25.96C115.898 26.16 115.798 26.35 115.798 26.53C115.798 26.67 115.868 26.79 116.008 26.89C116.168 26.99 116.368 27.06 116.608 27.1C116.868 27.14 117.128 27.16 117.388 27.16H121.888C122.288 27.16 122.808 27.19 123.448 27.25C124.088 27.29 124.728 27.44 125.368 27.7C126.008 27.96 126.548 28.38 126.988 28.96C127.428 29.52 127.648 30.33 127.648 31.39C127.648 32.55 127.318 33.51 126.658 34.27C126.018 35.03 125.028 35.59 123.688 35.95C122.368 36.31 120.698 36.49 118.678 36.49ZM119.158 33.04C120.378 33.04 121.328 32.97 122.008 32.83C122.688 32.71 123.168 32.5 123.448 32.2C123.748 31.92 123.898 31.56 123.898 31.12C123.898 30.72 123.808 30.41 123.628 30.19C123.468 29.97 123.248 29.82 122.968 29.74C122.708 29.64 122.438 29.58 122.158 29.56C121.898 29.52 121.668 29.5 121.468 29.5H117.688C116.848 29.58 116.238 29.81 115.858 30.19C115.498 30.55 115.318 30.97 115.318 31.45C115.318 31.89 115.458 32.22 115.738 32.44C116.018 32.66 116.438 32.81 116.998 32.89C117.578 32.99 118.298 33.04 119.158 33.04ZM119.098 23.14C120.058 23.14 120.778 22.91 121.258 22.45C121.738 21.97 121.978 21.35 121.978 20.59C121.978 19.79 121.728 19.13 121.228 18.61C120.748 18.09 120.038 17.83 119.098 17.83C118.178 17.83 117.458 18.09 116.938 18.61C116.418 19.11 116.158 19.76 116.158 20.56C116.158 21.06 116.268 21.51 116.488 21.91C116.728 22.29 117.068 22.59 117.508 22.81C117.948 23.03 118.478 23.14 119.098 23.14ZM139.756 31.42C138.216 31.42 136.836 31.21 135.616 30.79C134.416 30.35 133.386 29.71 132.526 28.87C131.686 28.01 131.046 26.95 130.606 25.69C130.166 24.43 129.946 22.97 129.946 21.31C129.946 19.63 130.166 18.14 130.606 16.84C131.066 15.54 131.716 14.44 132.556 13.54C133.416 12.62 134.426 11.93 135.586 11.47C136.746 11.01 138.036 10.78 139.456 10.78C140.556 10.78 141.576 10.93 142.516 11.23C143.456 11.51 144.266 11.92 144.946 12.46C145.626 13 146.156 13.66 146.536 14.44C146.936 15.22 147.146 16.1 147.166 17.08L143.176 18.13C143.176 17.29 142.986 16.59 142.606 16.03C142.246 15.47 141.766 15.05 141.166 14.77C140.586 14.47 139.966 14.32 139.306 14.32C138.726 14.32 138.146 14.44 137.566 14.68C137.006 14.9 136.486 15.28 136.006 15.82C135.546 16.34 135.166 17.03 134.866 17.89C134.586 18.75 134.446 19.8 134.446 21.04C134.446 22.66 134.676 23.97 135.136 24.97C135.616 25.97 136.266 26.71 137.086 27.19C137.906 27.65 138.826 27.88 139.846 27.88C140.946 27.88 141.796 27.66 142.396 27.22C143.016 26.76 143.456 26.18 143.716 25.48C143.996 24.76 144.146 24 144.166 23.2L147.946 23.83C147.926 24.89 147.766 25.89 147.466 26.83C147.166 27.75 146.696 28.56 146.056 29.26C145.416 29.94 144.576 30.47 143.536 30.85C142.496 31.23 141.236 31.42 139.756 31.42ZM159.636 31.42C158.196 31.42 156.906 31.2 155.766 30.76C154.626 30.3 153.646 29.64 152.826 28.78C152.026 27.9 151.406 26.83 150.966 25.57C150.546 24.29 150.336 22.83 150.336 21.19C150.336 18.85 150.746 16.92 151.566 15.4C152.386 13.86 153.506 12.71 154.926 11.95C156.366 11.17 157.986 10.78 159.786 10.78C161.186 10.78 162.456 11.01 163.596 11.47C164.736 11.91 165.706 12.57 166.506 13.45C167.326 14.31 167.956 15.39 168.396 16.69C168.836 17.97 169.056 19.44 169.056 21.1C169.056 22.8 168.836 24.29 168.396 25.57C167.956 26.85 167.316 27.93 166.476 28.81C165.656 29.67 164.666 30.32 163.506 30.76C162.346 31.2 161.056 31.42 159.636 31.42ZM159.756 27.97C160.816 27.97 161.706 27.71 162.426 27.19C163.146 26.67 163.696 25.92 164.076 24.94C164.456 23.96 164.646 22.76 164.646 21.34C164.646 19.86 164.446 18.6 164.046 17.56C163.666 16.52 163.106 15.73 162.366 15.19C161.626 14.63 160.726 14.35 159.666 14.35C158.626 14.35 157.736 14.62 156.996 15.16C156.276 15.68 155.716 16.44 155.316 17.44C154.936 18.44 154.746 19.68 154.746 21.16C154.746 22.24 154.856 23.21 155.076 24.07C155.316 24.91 155.646 25.62 156.066 26.2C156.486 26.78 157.006 27.22 157.626 27.52C158.246 27.82 158.956 27.97 159.756 27.97ZM179.621 35.8V11.2H183.341V35.8H179.621ZM193.779 31V26.59L201.459 21.52C201.819 21.3 202.179 21.04 202.539 20.74C202.919 20.44 203.259 20.1 203.559 19.72C203.879 19.34 204.139 18.93 204.339 18.49C204.539 18.03 204.639 17.53 204.639 16.99C204.639 16.45 204.509 15.98 204.249 15.58C204.009 15.18 203.649 14.88 203.169 14.68C202.709 14.46 202.139 14.35 201.459 14.35C200.779 14.35 200.209 14.46 199.749 14.68C199.309 14.88 198.949 15.18 198.669 15.58C198.409 15.96 198.219 16.42 198.099 16.96C197.999 17.5 197.949 18.09 197.949 18.73L193.809 17.89C193.769 16.41 194.049 15.14 194.649 14.08C195.269 13 196.159 12.17 197.319 11.59C198.479 11.01 199.889 10.72 201.549 10.72C202.989 10.72 204.259 10.95 205.359 11.41C206.479 11.85 207.349 12.52 207.969 13.42C208.589 14.3 208.899 15.39 208.899 16.69C208.899 17.69 208.729 18.59 208.389 19.39C208.069 20.19 207.639 20.91 207.099 21.55C206.579 22.17 205.999 22.72 205.359 23.2C204.739 23.68 204.129 24.1 203.529 24.46L198.789 27.37V27.64L209.229 27.49V31H193.779ZM220.408 31.42C219.148 31.42 217.988 31.19 216.928 30.73C215.888 30.27 214.998 29.61 214.258 28.75C213.518 27.87 212.948 26.8 212.548 25.54C212.148 24.26 211.948 22.81 211.948 21.19C211.948 18.91 212.318 17 213.058 15.46C213.798 13.92 214.818 12.76 216.118 11.98C217.418 11.2 218.888 10.81 220.528 10.81C222.228 10.81 223.708 11.21 224.968 12.01C226.248 12.81 227.228 13.98 227.908 15.52C228.608 17.04 228.958 18.9 228.958 21.1C228.958 22.76 228.748 24.24 228.328 25.54C227.928 26.82 227.348 27.9 226.588 28.78C225.828 29.64 224.928 30.3 223.888 30.76C222.848 31.2 221.688 31.42 220.408 31.42ZM220.498 28C221.018 28 221.518 27.88 221.998 27.64C222.498 27.4 222.948 27.02 223.348 26.5C223.748 25.96 224.068 25.27 224.308 24.43C224.548 23.57 224.668 22.51 224.668 21.25C224.668 19.75 224.488 18.48 224.128 17.44C223.768 16.38 223.278 15.58 222.658 15.04C222.038 14.48 221.308 14.2 220.468 14.2C219.808 14.2 219.158 14.42 218.518 14.86C217.878 15.28 217.338 15.99 216.898 16.99C216.478 17.99 216.268 19.36 216.268 21.1C216.268 22.32 216.378 23.37 216.598 24.25C216.838 25.11 217.148 25.82 217.528 26.38C217.928 26.92 218.378 27.33 218.878 27.61C219.398 27.87 219.938 28 220.498 28ZM231.66 31V26.59L239.34 21.52C239.7 21.3 240.06 21.04 240.42 20.74C240.8 20.44 241.14 20.1 241.44 19.72C241.76 19.34 242.02 18.93 242.22 18.49C242.42 18.03 242.52 17.53 242.52 16.99C242.52 16.45 242.39 15.98 242.13 15.58C241.89 15.18 241.53 14.88 241.05 14.68C240.59 14.46 240.02 14.35 239.34 14.35C238.66 14.35 238.09 14.46 237.63 14.68C237.19 14.88 236.83 15.18 236.55 15.58C236.29 15.96 236.1 16.42 235.98 16.96C235.88 17.5 235.83 18.09 235.83 18.73L231.69 17.89C231.65 16.41 231.93 15.14 232.53 14.08C233.15 13 234.04 12.17 235.2 11.59C236.36 11.01 237.77 10.72 239.43 10.72C240.87 10.72 242.14 10.95 243.24 11.41C244.36 11.85 245.23 12.52 245.85 13.42C246.47 14.3 246.78 15.39 246.78 16.69C246.78 17.69 246.61 18.59 246.27 19.39C245.95 20.19 245.52 20.91 244.98 21.55C244.46 22.17 243.88 22.72 243.24 23.2C242.62 23.68 242.01 24.1 241.41 24.46L236.67 27.37V27.64L247.11 27.49V31H231.66ZM257.446 31.42C255.946 31.42 254.626 31.2 253.486 30.76C252.346 30.32 251.456 29.7 250.816 28.9C250.196 28.08 249.876 27.1 249.856 25.96L253.936 25.15C254.056 26.09 254.436 26.8 255.076 27.28C255.716 27.74 256.506 27.97 257.446 27.97C258.546 27.97 259.396 27.67 259.996 27.07C260.596 26.45 260.896 25.52 260.896 24.28C260.896 23.72 260.836 23.21 260.716 22.75C260.596 22.29 260.406 21.9 260.146 21.58C259.906 21.24 259.586 20.98 259.186 20.8C258.786 20.62 258.306 20.53 257.746 20.53C257.366 20.53 257.016 20.58 256.696 20.68C256.396 20.78 256.116 20.92 255.856 21.1C255.596 21.26 255.356 21.47 255.136 21.73C254.916 21.99 254.716 22.3 254.536 22.66H250.216L250.936 11.2H264.466V14.8H254.536L254.086 20.44H254.446C254.866 19.42 255.526 18.66 256.426 18.16C257.346 17.66 258.356 17.41 259.456 17.41C260.756 17.41 261.836 17.69 262.696 18.25C263.576 18.81 264.236 19.6 264.676 20.62C265.116 21.62 265.336 22.81 265.336 24.19C265.336 25.87 265.006 27.25 264.346 28.33C263.686 29.39 262.756 30.17 261.556 30.67C260.376 31.17 259.006 31.42 257.446 31.42Z" fill="#313030"/>
<path d="M286.075 32.6492L286.901 29.5987L293.303 31.2963C295.806 31.96 297.816 31.9902 299.335 31.387C300.861 30.7576 301.909 29.3869 302.481 27.275C303.011 25.3195 302.813 23.7023 301.889 22.4232C300.998 21.125 299.341 20.1545 296.917 19.5118L290.12 17.7094L290.925 14.737L297.801 16.5604C299.513 17.0145 300.975 17.6118 302.186 18.3522C303.424 19.0996 304.401 19.9736 305.119 20.9743C305.836 21.9749 306.28 23.0987 306.451 24.3456C306.655 25.5734 306.559 26.9173 306.164 28.3774C305.642 30.3068 304.753 31.8176 303.497 32.9098C302.241 34.002 300.649 34.6696 298.719 34.9124C296.797 35.1292 294.571 34.9023 292.042 34.2316L286.075 32.6492ZM282 40.0359L288.988 14.2235L292.624 15.1876L285.636 41L282 40.0359Z" fill="#313030"/>
<path d="M309.308 27.3375C307.438 26.8414 305.829 26.1075 304.483 25.1357C303.163 24.1708 302.141 22.9916 301.417 21.598C300.693 20.2044 300.273 18.626 300.158 16.8627C300.076 15.0804 300.317 13.1463 300.882 11.0605C301.453 8.94855 302.242 7.1316 303.247 5.60964C304.259 4.0616 305.441 2.82413 306.793 1.89723C308.145 0.970333 309.63 0.386129 311.249 0.144619C312.874 -0.122964 314.583 -0.0192231 316.374 0.455843C317.744 0.819129 318.956 1.35002 320.009 2.04851C321.069 2.72093 321.922 3.53394 322.567 4.48755C323.246 5.42207 323.685 6.46063 323.884 7.60324C324.083 8.74584 324.026 9.94639 323.714 11.2049L320.043 11.1536C320.429 9.83085 320.449 8.66242 320.102 7.64831C319.763 6.60813 319.179 5.74066 318.35 5.04591C317.522 4.35116 316.554 3.85708 315.448 3.56366C314.421 3.29119 313.363 3.2343 312.275 3.39298C311.221 3.53257 310.209 3.93476 309.238 4.59956C308.274 5.23828 307.389 6.16313 306.581 7.37409C305.806 8.56596 305.169 10.0875 304.667 11.9387C304.025 14.3113 303.849 16.3185 304.138 17.9603C304.454 19.609 305.149 20.953 306.223 21.9923C307.304 23.0056 308.675 23.7323 310.334 24.1724C311.941 24.5985 313.31 24.6541 314.44 24.339C315.577 23.9978 316.524 23.3686 317.28 22.4514C318.044 21.5082 318.652 20.3561 319.106 18.9952L322.187 20.4411C321.808 21.7378 321.262 22.9204 320.549 23.9889C319.836 25.0574 318.951 25.9266 317.895 26.5965C316.838 27.2664 315.597 27.6779 314.172 27.8309C312.747 27.984 311.126 27.8195 309.308 27.3375Z" fill="#313030"/>
</svg>
